<svg width="125" height="40" viewBox="0 0 125 40" fill="none" xmlns="http://www.w3.org/2000/svg">
<path fill-rule="evenodd" clip-rule="evenodd" d="M76.7259 2.89157L71.1066 16.0122L73.5272 16.0105L74.5416 13.5423H78.6774L79.638 16.0122H82.4775L76.8616 2.89157H76.7259ZM77.8635 11.4493L76.6667 8.37195L75.4019 11.4493H77.8635Z" fill="#333333"/>
<path fill-rule="evenodd" clip-rule="evenodd" d="M52.2153 3.38829C52.9207 3.37761 53.6235 3.47883 54.298 3.68827C54.8617 3.86337 55.3833 4.15543 55.8295 4.54586C56.2387 4.9139 56.5596 5.37158 56.7681 5.88412C56.9895 6.44248 57.0989 7.03997 57.0898 7.64166C57.0893 8.1663 57.0125 8.68801 56.8619 9.18999C56.7099 9.70472 56.4565 10.1829 56.1171 10.5957C55.8371 10.9304 55.5019 11.2118 55.1274 11.4278L58.0266 16.0118H55.1606L52.5319 12.0022H50.8953V16.0161H48.4406V3.39434L52.2153 3.38829ZM52.6419 9.59717C52.9625 9.60818 53.2812 9.54336 53.5728 9.40784C53.7999 9.2974 53.9979 9.13384 54.1504 8.93064C54.2854 8.74811 54.3885 8.54341 54.455 8.32548C54.5141 8.13369 54.5455 7.93421 54.548 7.73329C54.5435 7.55897 54.5238 7.38539 54.4891 7.21459C54.4431 6.98785 54.36 6.77047 54.2434 6.5714C54.1055 6.34083 53.9097 6.15142 53.676 6.02244C53.42 5.87461 53.0787 5.79939 52.6521 5.79939H50.8953V9.60754L52.6419 9.59717Z" fill="#333333"/>
<path d="M62.6112 12.496C62.3832 12.1568 62.2597 11.7567 62.2562 11.3463V3.38847H59.799V11.3973C59.7835 12.267 60.0189 13.1224 60.4764 13.8585C60.9251 14.5709 61.5514 15.1506 62.2921 15.5391C63.0737 15.9486 63.9429 16.1565 64.8227 16.1443C65.712 16.1577 66.5909 15.9499 67.3824 15.5391C68.128 15.1528 68.759 14.5729 69.2109 13.8585C69.6667 13.1236 69.9018 12.2703 69.8875 11.4024V3.3928H67.4669V11.3463C67.464 11.7556 67.3433 12.1552 67.1196 12.496C66.8731 12.8824 66.5334 13.1987 66.1328 13.4152C65.7321 13.6316 65.2836 13.7411 64.8296 13.7332C64.38 13.7365 63.9379 13.617 63.5497 13.3874C63.1719 13.1693 62.8504 12.8639 62.6112 12.496Z" fill="#333333"/>
<path d="M95.4466 16.5266L86.7309 8.5492L86.7804 16.0113H84.2924V2.89157H84.3939L93.0926 10.9949L93.0439 3.38866H95.5183V16.5292L95.4466 16.5266Z" fill="#333333"/>
<path d="M108.837 14.7427C108.634 14.9431 108.399 15.1081 108.143 15.2312C107.791 15.4118 107.426 15.5639 107.051 15.6859C106.638 15.8228 106.217 15.9345 105.79 16.0205C105.389 16.1031 104.98 16.1459 104.571 16.1484C103.638 16.1622 102.709 16.0086 101.829 15.6946C101.058 15.4167 100.35 14.9848 99.7468 14.4246C99.1745 13.8858 98.7242 13.2278 98.4268 12.4959C98.1164 11.7226 97.9609 10.8945 97.9695 10.0597C97.9695 8.90702 98.1401 7.90391 98.4814 7.05035C98.793 6.24705 99.2724 5.52155 99.8867 4.92367C100.473 4.36094 101.171 3.931 101.934 3.66235C102.715 3.38682 103.537 3.24767 104.364 3.25085C105.105 3.24363 105.845 3.33312 106.564 3.51712C107.155 3.66343 107.725 3.88476 108.261 4.17587L107.466 6.49102C107.206 6.35128 106.933 6.23554 106.653 6.14522C106.314 6.03101 105.97 5.93662 105.62 5.86252C105.315 5.79327 105.003 5.7559 104.689 5.751C104.083 5.74195 103.478 5.82946 102.898 6.01035C102.409 6.16428 101.96 6.42819 101.586 6.78236C101.221 7.1397 100.944 7.57964 100.779 8.06615C100.589 8.63793 100.498 9.2386 100.509 9.84184C100.501 10.3894 100.605 10.9326 100.813 11.4377C101.007 11.8998 101.298 12.313 101.667 12.648C102.045 12.9872 102.489 13.2441 102.969 13.4027C103.508 13.5806 104.071 13.6682 104.637 13.6621C104.96 13.6643 105.283 13.6382 105.602 13.5843C105.862 13.5444 106.114 13.4605 106.346 13.3362V11.8095H104.197V9.40786H108.835L108.837 14.7427Z" fill="#333333"/>
<path d="M93.6882 29.1294L102.405 37.1067L102.477 37.1084V23.9679H100.003L100.052 31.5783L91.3511 23.4726H91.2522V36.5949H93.7402L93.6882 29.1294Z" fill="#333333"/>
<path fill-rule="evenodd" clip-rule="evenodd" d="M55.9422 36.5947L61.5624 23.475H61.6972L67.3148 36.5947H64.4745L63.5125 34.1231H59.3761L58.3603 36.5947H55.9422ZM61.5007 28.9539L62.699 32.0327H60.2353L61.5007 28.9539Z" fill="#333333"/>
<path d="M55.99 23.9733H47.5943V26.3706H50.5064V36.5951H52.9602V26.374H55.99V23.9733Z" fill="#333333"/>
<path d="M71.5803 23.9733H69.1264V36.5951H77.4376V34.1918H71.5803V23.9733Z" fill="#333333"/>
<path d="M88.4732 23.9733H79.9759V36.5951H88.7104V34.1918H82.4307V31.4677H87.7796V29.067H82.4307V26.374H88.4732V23.9733Z" fill="#333333"/>
<path d="M104.841 23.9733H113.237V26.374H110.207V36.5951H107.753V26.3706H104.841V23.9733Z" fill="#333333"/>
<path fill-rule="evenodd" clip-rule="evenodd" d="M113.187 36.5947L118.807 23.475H118.942L124.562 36.5947H121.718L120.758 34.1257H116.622L115.607 36.5947H113.187ZM118.747 28.9557L119.944 32.0327H117.482L118.747 28.9557Z" fill="#333333"/>
<path d="M23.2028 2.89123C23.2028 4.39084 21.9896 5.60652 20.493 5.60652C18.9964 5.60652 17.7831 4.39084 17.7831 2.89123C17.7831 1.39161 18.9964 0.175934 20.493 0.175934C21.9896 0.175934 23.2028 1.39161 23.2028 2.89123Z" fill="#FF5E57"/>
<path d="M15.0921 11.0772C15.1138 11.0772 15.1355 11.0769 15.1572 11.0764H15.3581C16.6134 11.0764 17.6499 12.1886 17.8021 13.4314C17.7896 13.5373 17.7831 13.6451 17.7831 13.7544C17.7831 15.254 18.9964 16.4697 20.493 16.4697C21.9896 16.4697 23.2028 15.254 23.2028 13.7544C23.2028 13.7336 23.2026 13.7128 23.2021 13.6921C23.2032 13.6912 23.2038 13.6902 23.2038 13.6891C23.2038 12.3366 24.2984 11.0388 25.6491 11.0388H25.9136C25.9139 11.0385 25.9143 11.0382 25.9146 11.0379C27.4107 11.0373 28.6234 9.82182 28.6234 8.32257C28.6234 6.82295 27.4101 5.60728 25.9135 5.60728C24.4169 5.60728 23.2037 6.82295 23.2037 8.32257C23.2037 8.32896 23.2037 8.33534 23.2038 8.34172V8.65351C23.2038 10.0069 22.127 11.0388 20.7576 11.0388C20.7342 11.0388 20.7065 11.0394 20.6773 11.04C20.6533 11.0405 20.6282 11.0411 20.6036 11.0413C20.5682 11.0399 20.5326 11.0391 20.4969 11.0391C20.4956 11.039 20.4943 11.0389 20.4931 11.0388C20.4929 11.0388 20.4932 11.0388 20.4931 11.0388C20.3556 11.0388 20.2204 11.0494 20.0884 11.0692C18.8063 10.9747 17.8248 9.97228 17.8248 8.67576V8.34233L17.8215 8.34124C17.821 6.83122 16.5992 5.60728 15.0921 5.60728C13.5846 5.60728 12.3626 6.83176 12.3626 8.34224C12.3626 9.85271 13.5846 11.0772 15.0921 11.0772Z" fill="#FF5E57"/>
<path d="M20.4931 28.9613C20.6322 28.9613 20.7689 28.9508 20.9024 28.9305C22.1841 29.026 23.1645 30.0289 23.1645 31.3247V31.6282C23.1644 31.6381 23.1644 31.6481 23.1644 31.6581C23.1644 33.1686 24.3864 34.3932 25.8939 34.3932C27.4013 34.3932 28.6234 33.1686 28.6234 31.6581C28.6234 30.1475 27.4013 28.923 25.8939 28.923L25.8725 28.923H25.6278C24.3717 28.923 23.3354 27.8094 23.1843 26.5655C23.1966 26.4607 23.2029 26.354 23.2029 26.2458C23.2029 24.7461 21.9897 23.5304 20.4931 23.5304C18.9964 23.5304 17.7832 24.7461 17.7832 26.2458C17.7832 26.2667 17.7834 26.2876 17.7839 26.3084C17.7833 26.3091 17.783 26.3098 17.783 26.3106C17.783 27.6641 16.6875 28.9611 15.3368 28.9611H15.0723C15.0722 28.9613 15.072 28.9614 15.0718 28.9616C13.5755 28.9619 12.3626 30.1775 12.3626 31.677C12.3626 33.1767 13.5758 34.3925 15.0725 34.3925C16.5691 34.3925 17.7823 33.1767 17.7823 31.677C17.7823 31.6771 17.7823 31.6769 17.7823 31.677L17.783 31.6766V31.3457C17.783 29.9922 18.8598 28.9611 20.2284 28.9611C20.2503 28.9611 20.2771 28.9604 20.3058 28.9597C20.3258 28.9592 20.3467 28.9587 20.3676 28.9584C20.4092 28.9603 20.451 28.9613 20.4931 28.9613Z" fill="#F2003C"/>
<path d="M23.2029 37.1087C23.2029 38.6084 21.9897 39.8241 20.4931 39.8241C18.9964 39.8241 17.7832 38.6084 17.7832 37.1087C17.7832 35.609 18.9964 34.3932 20.4931 34.3932C21.9897 34.3932 23.2029 35.609 23.2029 37.1087Z" fill="#F2003C"/>
<path d="M34.5855 14.8598C34.5855 16.3701 33.3637 17.5945 31.8566 17.5948L31.856 17.5966H31.5232C30.2293 17.5966 29.2289 18.5794 29.1346 19.8646C29.1545 19.9974 29.1649 20.1333 29.1649 20.2716C29.1649 20.2717 29.1649 20.2715 29.1649 20.2716C29.1648 20.2723 29.1649 20.2731 29.1649 20.2738C29.1648 20.309 29.1641 20.344 29.1628 20.3789C29.1637 20.4346 29.1668 20.4932 29.1693 20.5368C29.1693 21.9081 30.1991 22.9871 31.5489 22.9871H31.88L31.8802 22.9877C33.3748 22.9901 34.5856 24.2049 34.5856 25.7031C34.5856 27.2028 33.3724 28.4185 31.8758 28.4185C30.3796 28.4185 29.1667 27.2034 29.166 25.7044C29.1656 25.704 29.1653 25.7037 29.165 25.7033V25.4383C29.165 24.0849 27.8707 22.9871 26.52 22.9871C26.5192 22.9871 26.5185 22.9868 26.5179 22.9863C26.497 22.9867 26.476 22.987 26.455 22.987C24.9584 22.987 23.7452 21.7713 23.7452 20.2716C23.7452 18.7719 24.9584 17.5562 26.455 17.5562C26.5646 17.5562 26.6727 17.5627 26.7789 17.5754C28.0185 17.4221 29.1273 16.3839 29.1273 15.1266V14.9262C29.1268 14.9041 29.1266 14.882 29.1266 14.8598C29.1266 13.3492 30.3486 12.1247 31.856 12.1247C33.3635 12.1247 34.5855 13.3492 34.5855 14.8598Z" fill="#00C8C7"/>
<path d="M40.0059 20.2716C40.0059 21.7713 38.7927 22.987 37.2961 22.987C35.7995 22.987 34.5863 21.7713 34.5863 20.2716C34.5863 18.7719 35.7995 17.5562 37.2961 17.5562C38.7927 17.5562 40.0059 18.7719 40.0059 20.2716Z" fill="#00C8C7"/>
<path d="M8.61015 17.5551C8.59626 17.5553 8.58236 17.5554 8.56842 17.5554C7.07182 17.5554 5.85859 16.3397 5.85859 14.8401C5.85859 13.3404 7.07182 12.1247 8.56842 12.1247C10.0647 12.1247 11.2777 13.3398 11.2783 14.8389C11.2785 14.8392 11.2787 14.8395 11.279 14.8397V15.1048C11.279 16.4582 12.5742 17.5551 13.924 17.5551C13.9253 17.5551 13.9264 17.5558 13.9273 17.5573C13.9478 17.5568 13.9684 17.5566 13.989 17.5566C15.4856 17.5566 16.6988 18.7723 16.6988 20.2719C16.6988 21.7716 15.4856 22.9873 13.989 22.9873C13.8817 22.9873 13.7759 22.981 13.6718 22.9689C12.4295 23.1192 11.3165 24.1589 11.3165 25.4184V25.6091C11.3172 25.6338 11.3175 25.6586 11.3175 25.6835C11.3175 27.194 10.0955 28.4185 8.58805 28.4185C7.08061 28.4185 5.85859 27.194 5.85859 25.6835C5.85859 24.173 7.08061 22.9485 8.58805 22.9485C8.63424 22.9485 8.68016 22.9496 8.72578 22.9519H8.92067C10.2158 22.9519 11.217 21.9664 11.3095 20.68C11.2895 20.5469 11.2791 20.4106 11.2791 20.2719C11.2791 20.2717 11.2791 20.2714 11.2791 20.2711C11.2792 20.2705 11.2791 20.27 11.2791 20.2694C11.2792 20.2321 11.28 20.195 11.2815 20.1581C11.2812 20.1342 11.2807 20.1099 11.2802 20.0866C11.2796 20.0574 11.279 20.0296 11.279 20.0062C11.279 18.634 10.2491 17.5551 8.89849 17.5551H8.61015Z" fill="#3EDB80"/>
<path d="M5.85771 20.2719C5.85771 21.7716 4.64448 22.9873 3.14788 22.9873C1.65128 22.9873 0.438042 21.7716 0.438042 20.2719C0.438042 18.7723 1.65128 17.5566 3.14788 17.5566C4.64448 17.5566 5.85771 18.7723 5.85771 20.2719Z" fill="#3EDB80"/>
</svg>
